#!OML:ASF F:\VICON\USERDATA\INSTALL\rory3\rory3.ASF
:FULLY-SPECIFIED
:DEGREES
94
root -6.036391281014195 17.896713501889806 -2.6754056863551208 -177.77143108779507 -12.612894808169607 -187.1284801202387
lfemur -31.521391879163012 -23.068150794088414 -14.09861311163433
ltibia 31.472877516215505
lfoot 50.0365991545962 -44.67467031757282
ltoes 68.62535125900217
rfemur 21.98847865763716 -9.391050929595849 23.044311600604267
rtibia 11.07788510293309
rfoot 37.6690698729704 -34.93074015567139
rtoes 26.409134141569588
lowerback -10.322207108336194 16.24769919594626 15.687285625758028
upperback -15.224600968944653 20.573889299768467 0.1893597959422859
thorax -7.213803411698844 8.674608695070978 -5.97655398465449
lowerneck -11.609457763947118 -21.773928846442853 -4.191910516853699
upperneck 6.129631649072321 -29.432591930579758 5.377929485752715
head 4.291558891273013 -14.299768804635184 -0.5096511968579043
lclavicle -6.921570516580282e-15 -5.071444086698465e-15
lhumerus 67.07143889380757 30.09410444556083 50.48202648306324
lradius 60.560831703328134
lwrist 22.061322565575196
lhand -22.63037381670555 12.41806553318591
lfingers 7.125020000000003
lthumb -176.1961664088549 380.0563778931009
rclavicle -6.9215705165802825e-15 -5.071444086698465e-15
rhumerus 116.30081332421055 29.33477661257013 -53.660583098154945
rradius 59.74023158408021
rwrist -1.4316496739893552
rhand -47.179525674845394 28.785921726088638
rfingers 7.125020000000003
rthumb -19.879267221716006 -0.3017773451103274
95
root -5.998318267221364 17.906099170462987 -2.5937769755565228 -177.23313562722342 -11.5582236763886 -186.5606201377207
lfemur -31.35973020983902 -22.5939144680153 -13.78723759785555
ltibia 31.22113968731594
lfoot 49.998757001608666 -44.142748731417605
ltoes 68.95131325989394
rfemur 21.671300178896246 -8.954195039576497 23.16859481674918
rtibia 11.941237617553966
rfoot 37.33462610734376 -34.305958633556386
rtoes 25.558486058433374
lowerback -9.98668621463878 15.747427398078193 15.785515615867991
upperback -14.67174415775212 20.39335216897114 0.4923032867930275
thorax -6.9633288770013895 8.819308893795913 -5.725483905472504
lowerneck -12.268128488696933 -21.11997271933605 -3.7931539281500224
upperneck 6.322115935256187 -28.507770422238245 5.066134689009815
head 4.320340053400193 -13.85081784468579 -0.6058928263623466
lclavicle -6.138088205583277e-15 -4.5192891355762695e-15
lhumerus 66.95626974499226 28.753635808064914 49.67715923171715
lradius 58.49688179218455
lwrist 23.87479371091447
lhand -21.384124169776264 12.517078071807887
lfingers 7.125020000000003
lthumb -174.995836522739 376.34976443591444
rclavicle -6.138088205583278e-15 -4.519289135576271e-15
rhumerus 115.56764285895754 29.341080969192042 -53.8420886791045
rradius 57.65871498709073
rwrist -3.0228359314032094
rhand -46.23173915629812 28.210421370189913
rfingers 7.125020000000003
rthumb -18.968693729227134 -0.9368298099595069
96
root -5.965848413745671 17.91547607923094 -2.543947189458597 -178.0680056507788 -10.99636002915674 -187.33032014652986
lfemur -31.35907578702465 -22.335943591650317 -13.626875843625474
ltibia 30.746862744803433
lfoot 49.664475469042415 -44.04797326907535
ltoes 68.85761700187517
rfemur 21.11882941951478 -8.614910105049459 23.118651518530683
rtibia 12.780030755423743
rfoot 36.834191117274045 -33.89104288235098
rtoes 24.682116563119624
lowerback -9.729954114659437 15.091619341046949 15.739428205147805
upperback -14.163810120013341 20.049873448601478 0.7701473740352526
thorax -6.756659424878958 8.918028959120333 -5.507996216399236
lowerneck -13.01878905205349 -20.68470141870271 -3.43174430020019
upperneck 6.309845030813877 -27.897769984290573 4.701158253014364
head 4.272545655750605 -13.54583871099363 -0.709834967705322
lclavicle -6.336681272441411e-15 -4.66222346671572e-15
lhumerus 66.55929043366523 26.6785133587575 48.965834206775185
lradius 56.29852249467362
lwrist 25.33956582126892
lhand -20.339560020032923 12.501289431123862
lfingers 7.125020000000003
lthumb -173.98906212308077 378.310401088051
rclavicle -6.336681272441411e-15 -4.662223466715719e-15
rhumerus 114.13481692827666 29.19109720047939 -54.101748536259535
rradius 55.21326213621081
rwrist -4.845669167131987
rhand -45.584046981669346 27.548432496141977
rfingers 7.125020000000003
rthumb -18.34571612388238 -1.6458862438770385
97
root -5.931925560779984 17.92657186431493 -2.481220690907837 -178.07044741637276 -10.143087433180114 -187.21906564733484
lfemur -31.346514905420392 -22.03540293537508 -13.504158630034041
ltibia 30.34675597535031
lfoot 49.19438067604946 -43.93753057705345
ltoes 68.39787560289932
rfemur 20.52978525222094 -8.27929423433586 23.024265046589647
rtibia 13.630876346152366
rfoot 36.23994069545552 -33.51786911068374
rtoes 23.805726520945797
lowerback -9.42443478956776 14.479473487232934 15.680393184976664
upperback -13.660054624116082 19.70730043246806 1.0710102805494806
thorax -6.556381326369668 8.993491110715341 -5.2736818718836345
lowerneck -13.708938387706667 -20.24141319358919 -3.074543263841921
upperneck 6.303200720083831 -27.291311278803285 4.420261461570729
head 4.26742922006076 -13.23910751717659 -0.7915385738651486
lclavicle -6.414248452658231e-15 -4.720720577592401e-15
lhumerus 66.235379980713 24.70581388247048 48.6133520452553
lradius 54.31532435449271
lwrist 26.575838131736376
lhand -19.490467168746694 12.51257105341093
lfingers 7.125020000000003
lthumb -173.17062611433698 378.85894045330684
rclavicle -6.414248452658231e-15 -4.720720577592401e-15
rhumerus 112.82101665639617 29.086535303781382 -54.3151091410731
rradius 52.927738605688056
rwrist -6.358881171828921
rhand -45.02455013506169 27.00516975962759
rfingers 7.125020000000003
rthumb -17.807513937824197 -2.2256661308783308
